# xmcd
#
# Track frame offsets:
#	150
#	13924
#	26602
#	43393
#	59617
#	78176
#	93236
#	106676
#	128150
#	142492
#	160432
#	173124
#	189774
#	205444
#	219619
#	236687
#	252446
#	272659
#
# Disc length: 3928 seconds
#
# Revision: 0
# Processed by: cddbd v1.5.2PL0 Copyright (c) Steve Scherf et al.
# Submitted via: audiograbber 1.83.01
#
DISCID=0a0f5612
DTITLE=Micheal Stenberg - A Retrospect
DYEAR=2010
DGENRE=Acoustic
TTITLE0=Thunder Road
TTITLE1=Further In The Hole
TTITLE2=Moonlite In Vermont
TTITLE3=Lonesome Restless Heart
TTITLE4=I Never Thought We'd Go So Far
TTITLE5=Too Much Junk
TTITLE6=Go On A Cruise
TTITLE7=Moonlights Lover
TTITLE8=I Used To Be Your Rooster
TTITLE9=Milk Cow Blues
TTITLE10=Dry Delta Hills
TTITLE11=Fine As Fine Can Be
TTITLE12=I'll Cry Instead
TTITLE13=Sixteen Tons
TTITLE14=Uncle Rylan
TTITLE15=Pony Man
TTITLE16=Bonafide Dude
TTITLE17=To Be Kissed
EXTD=
EXTT0=
EXTT1=
EXTT2=
EXTT3=
EXTT4=
EXTT5=
EXTT6=
EXTT7=
EXTT8=
EXTT9=
EXTT10=
EXTT11=
EXTT12=
EXTT13=
EXTT14=
EXTT15=
EXTT16=
EXTT17=
PLAYORDER=
